<svg width="20" height="22" viewBox="0 0 20 22" fill="none" xmlns="http://www.w3.org/2000/svg">
<path d="M12.6739 15H13.8004C14.9875 15 16.1133 15.5273 16.8733 16.4393L17.9403 17.7196C19.0258 19.0223 18.0995 21 16.4038 21H2.94401C1.24833 21 0.32202 19.0223 1.40757 17.7196L2.47454 16.4393C3.23452 15.5273 4.3603 15 5.54742 15H6.67392M9.67358 18V9M9.67358 9V3C9.67358 1.89543 10.569 1 11.6736 1H17.0555C17.7989 1 18.2824 1.78231 17.95 2.44721L16.8972 4.55279C16.7564 4.83431 16.7564 5.16569 16.8972 5.44721L17.95 7.55279C18.2824 8.21769 17.7989 9 17.0555 9H9.67358Z" stroke="#3C7795" stroke-width="1.5" stroke-linecap="round"/>
</svg>
