<svg width="30" height="30" viewBox="0 0 30 30" fill="none" xmlns="http://www.w3.org/2000/svg">
<path opacity="0.4" d="M26.7015 22.6879V9.87134L15.0021 12.7962L3.30273 9.87134V22.6879C3.30273 23.7957 3.92866 24.8085 4.91955 25.3039L13.6941 29.6912C14.5175 30.1029 15.4867 30.1029 16.3101 29.6912L25.0846 25.3039C26.0755 24.8085 26.7015 23.7957 26.7015 22.6879Z" fill="#3C7795"/>
<path opacity="0.4" d="M26.7015 6.94634L16.3101 1.75068C15.4867 1.33897 14.5175 1.33897 13.6941 1.75068L3.30273 6.94634L15.0021 12.796L26.7015 6.94634Z" fill="#3C7795"/>
<path d="M26.7003 6.94641L15.001 12.7961L17.9258 17.1834L29.6252 11.3337L26.7003 6.94641Z" fill="#3C7795"/>
<path d="M3.30162 6.94641L15.001 12.7961L12.0761 17.1834L0.376776 11.3337L3.30162 6.94641Z" fill="#3C7795"/>
<path fill-rule="evenodd" clip-rule="evenodd" d="M20.1102 0.271393C20.5661 0.670285 20.6123 1.36321 20.2134 1.81909L16.0164 6.61567C15.1145 7.64637 13.5611 7.78439 12.4916 6.92883L9.92828 4.87814C9.45527 4.49973 9.37858 3.80951 9.75699 3.3365C10.1354 2.86348 10.8256 2.78679 11.2986 3.1652L13.862 5.21589C14.0148 5.33811 14.2367 5.3184 14.3655 5.17115L18.5625 0.374572C18.9614 -0.0813042 19.6544 -0.127499 20.1102 0.271393Z" fill="#3C7795"/>
</svg>
